<?xml version="1.0" standalone="no"?><svg xmlns="http://www.w3.org/2000/svg" viewBox="0 0 1440 320"><path fill="#ffd700" fill-opacity="0.2" d="M0,160L0,96L51.4,96L51.4,288L102.9,288L102.9,96L154.3,96L154.3,128L205.7,128L205.7,32L257.1,32L257.1,192L308.6,192L308.6,32L360,32L360,256L411.4,256L411.4,224L462.9,224L462.9,288L514.3,288L514.3,32L565.7,32L565.7,0L617.1,0L617.1,32L668.6,32L668.6,96L720,96L720,64L771.4,64L771.4,224L822.9,224L822.9,160L874.3,160L874.3,64L925.7,64L925.7,96L977.1,96L977.1,96L1028.6,96L1028.6,64L1080,64L1080,32L1131.4,32L1131.4,288L1182.9,288L1182.9,288L1234.3,288L1234.3,32L1285.7,32L1285.7,256L1337.1,256L1337.1,96L1388.6,96L1388.6,0L1440,0L1440,320L1388.6,320L1388.6,320L1337.1,320L1337.1,320L1285.7,320L1285.7,320L1234.3,320L1234.3,320L1182.9,320L1182.9,320L1131.4,320L1131.4,320L1080,320L1080,320L1028.6,320L1028.6,320L977.1,320L977.1,320L925.7,320L925.7,320L874.3,320L874.3,320L822.9,320L822.9,320L771.4,320L771.4,320L720,320L720,320L668.6,320L668.6,320L617.1,320L617.1,320L565.7,320L565.7,320L514.3,320L514.3,320L462.9,320L462.9,320L411.4,320L411.4,320L360,320L360,320L308.6,320L308.6,320L257.1,320L257.1,320L205.7,320L205.7,320L154.3,320L154.3,320L102.9,320L102.9,320L51.4,320L51.4,320L0,320L0,320Z"></path></svg>